<svg preserveAspectRatio="none" width="100%" height="100%" overflow="visible" style="display: block;" viewBox="0 0 68 18" fill="none" xmlns="http://www.w3.org/2000/svg">
<g id="fedex-express-6" clip-path="url(#clip0_0_7)">
<path id="Vector" d="M67.5814 15.6594C67.5814 14.659 66.8385 13.9265 65.8151 13.9265C64.7934 13.9265 64.0497 14.659 64.0497 15.6594C64.0497 16.6581 64.7934 17.3895 65.8151 17.3895C66.8385 17.3895 67.5814 16.6569 67.5814 15.6594ZM65.351 15.7482V16.8801H64.9681V14.3842H65.9197C66.4773 14.3842 66.7331 14.6168 66.7331 15.0701C66.7331 15.3493 66.5355 15.5705 66.2809 15.6026V15.6131C66.5019 15.6468 66.5831 15.8351 66.6285 16.1797C66.6634 16.4029 66.7097 16.79 66.793 16.8809H66.34C66.2346 16.6464 66.2452 16.3144 66.164 16.0364C66.0969 15.825 65.9787 15.7478 65.725 15.7478H65.3531V15.7491L65.351 15.7482ZM65.8257 15.4256C66.1976 15.4256 66.3039 15.2365 66.3039 15.0697C66.3039 14.8725 66.1976 14.7166 65.8257 14.7166H65.351V15.4264H65.8257V15.4256ZM63.6285 15.6594C63.6285 14.4268 64.6532 13.5937 65.8134 13.5937C66.977 13.5937 68.0004 14.4268 68.0004 15.6594C68.0004 16.8895 66.9775 17.7235 65.8134 17.7235C64.6532 17.7235 63.6285 16.8895 63.6285 15.6594Z" fill="var(--fill-0, #383837)"/>
<g id="Group">
<path id="Vector_2" d="M56.0564 17.3635L53.5375 14.6659L51.0407 17.3635H45.7869L50.9217 11.8547L45.7869 6.34421H51.2047L53.7492 9.0211L56.1975 6.34421H61.4258L56.3165 11.8315L61.4968 17.3635H56.0564ZM35.6985 17.3635V0.00463233H45.7869V3.87388H39.9718V6.34421H45.7869V10.0673H39.9718V13.4845H45.7869V17.3635H35.6985Z" fill="var(--fill-0, #383837)"/>
</g>
<path id="Vector_3" d="M31.4409 0.0046321V7.1088H31.3937C30.4515 6.07473 29.2739 5.71435 27.9084 5.71435C25.1102 5.71435 23.0023 7.53209 22.2624 9.93343C21.4183 7.28697 19.2419 5.66484 16.0154 5.66484C13.3945 5.66484 11.3256 6.78778 10.2449 8.61811V6.3438H4.82833V3.87429H10.74V0.00544487H-4.03094e-07V17.3635H4.82833V10.0673H9.64094C9.4927 10.6284 9.4186 11.205 9.42037 11.7836C9.42037 15.4029 12.3167 17.9463 16.0145 17.9463C19.1229 17.9463 21.1731 16.5514 22.2564 14.0121H18.1183C17.559 14.7763 17.134 15.0019 16.015 15.0019C14.7179 15.0019 13.5985 13.9208 13.5985 12.6408H22.0244C22.3899 15.5161 24.7358 17.9954 27.9556 17.9954C29.3444 17.9954 30.616 17.3432 31.3933 16.2413H31.4401V17.3659H35.6972V0.00544487H31.4409V0.0046321ZM13.7328 10.1193C14.0018 9.01624 14.8972 8.29547 16.015 8.29547C17.2458 8.29547 18.0957 8.99391 18.3189 10.1193H13.7328ZM28.8574 14.7219C27.2887 14.7219 26.3138 13.3262 26.3138 11.8685C26.3138 10.31 27.1621 8.81291 28.8574 8.81291C30.6164 8.81291 31.3172 10.3109 31.3172 11.8685C31.3172 13.3449 30.5752 14.7219 28.8574 14.7219Z" fill="var(--fill-0, #111110)" fill-opacity="0.5"/>
</g>
<defs>
<clipPath id="clip0_0_7">
<rect width="68" height="18" fill="white"/>
</clipPath>
</defs>
</svg>
