<svg preserveAspectRatio="none" width="100%" height="100%" overflow="visible" style="display: block;" viewBox="0 0 90 12.7284" fill="none" xmlns="http://www.w3.org/2000/svg">
<g id="Group">
<path id="Vector" d="M15.8261 0L12.9508 3.90686H28.6217C29.4142 3.90686 29.4043 4.20526 29.0169 4.73289C28.6237 5.26645 27.9656 6.18931 27.5645 6.73276C27.3609 7.00744 26.9934 7.50741 28.2107 7.50741H34.6193L36.5184 4.92655C37.6962 3.32784 36.6212 0.00197507 32.41 0.00197507L15.8261 0Z" fill="var(--fill-0, #242423)"/>
<path id="Vector_2" d="M11.7878 12.7284L17.5641 4.87912H24.7316C25.524 4.87912 25.5141 5.1795 25.1268 5.70516L23.6644 7.69712C23.4609 7.97181 23.0933 8.47177 24.3107 8.47177H33.9108C33.1144 9.56656 30.5217 12.7284 25.8738 12.7284H11.7878ZM44.8646 8.4698L41.7324 12.7284H33.4701L36.6023 8.4698H44.8646ZM57.5199 7.50543H37.3137L42.8391 0H51.0974L47.9316 4.30406H51.6172L54.7869 0H63.0453L57.5199 7.50543ZM56.8105 8.4698L53.6783 12.7284H45.4199L48.5521 8.4698H56.8105ZM0 10.1495H12.1692L11.5052 11.0526H0V10.1495ZM0 8.4698H13.4062L12.7403 9.3729H0V8.4698ZM0 11.8293H10.9341L10.2721 12.7284H0V11.8293ZM90 11.0526H77.8743L78.5403 10.1495H90V11.0526ZM90 12.7284H76.6432L77.3032 11.8293H90V12.7284ZM79.7754 8.4698H90V9.37488H79.1114L79.7754 8.4698ZM74.4832 0L68.9579 7.50543H60.2055L65.7348 0H74.4832ZM59.4981 8.4698C59.4981 8.4698 58.8953 9.29583 58.6009 9.69106C57.5654 11.0941 58.4803 12.7264 61.8655 12.7264H75.1294L78.2616 8.4698H59.4981Z" fill="var(--fill-0, #242423)"/>
</g>
</svg>
