<svg width="30" height="15" viewBox="0 0 30 15" fill="none" xmlns="http://www.w3.org/2000/svg">
<g clip-path="url(#clip0_4702_10486)">
<path d="M16.8234 10.4091C16.7741 10.2924 12.7649 2.34706 12.7002 2.23878C12.4893 1.73253 12.1194 1.28956 11.6104 0.990026C10.3644 0.260182 8.76273 0.677839 8.03289 1.92378C7.53226 2.77878 7.57164 3.79971 8.04835 4.59284C8.09757 4.70956 11.9338 12.3132 11.9999 12.4228C12.0491 12.5396 12.1054 12.6535 12.1715 12.7632C12.3824 13.2694 12.7523 13.7124 13.2613 14.0119C14.5073 14.7417 16.109 14.3241 16.8388 13.0781C17.3394 12.2232 17.3001 11.2022 16.8234 10.4091Z" fill="white" fill-opacity="0.5"/>
<path d="M12.1948 5.03285C12.6335 4.56457 12.9021 3.93598 12.9021 3.24551C12.9021 1.80129 11.7321 0.629883 10.2879 0.629883C9.40055 0.629883 8.61586 1.07285 8.14336 1.74926C8.05758 1.84066 1.54805 9.86332 1.47492 9.96738C1.03617 10.4357 0.767578 11.0629 0.767578 11.7547C0.767578 13.1989 1.93758 14.3689 3.3818 14.3689C4.26914 14.3689 5.05383 13.926 5.52633 13.2496C5.61211 13.1582 12.1216 5.13551 12.1948 5.03145V5.03285Z" fill="white"/>
<path d="M23.3965 5.03285C23.8352 4.56457 24.1038 3.93598 24.1038 3.24551C24.1052 1.80129 22.9338 0.629883 21.491 0.629883C20.6037 0.629883 19.819 1.07285 19.3465 1.74926C19.2607 1.84066 12.7512 9.86332 12.678 9.96738C12.2393 10.4357 11.9707 11.0629 11.9707 11.7547C11.9707 13.1989 13.1407 14.3689 14.5849 14.3689C15.4723 14.3689 16.257 13.926 16.7295 13.2496C16.8152 13.1582 23.3248 5.13551 23.3979 5.03145L23.3965 5.03285Z" fill="white"/>
<path d="M28.5255 10.7648C28.9642 10.2966 29.2328 9.66797 29.2328 8.9775C29.2328 7.53328 28.0628 6.36328 26.6186 6.36328C25.7312 6.36328 24.9466 6.80625 24.4741 7.48266C24.3883 7.57406 22.4041 9.86484 22.3323 9.9675C21.8936 10.4358 21.625 11.063 21.625 11.7548C21.625 13.1991 22.795 14.3691 24.2392 14.3691C25.1266 14.3691 25.9112 13.9261 26.3837 13.2497C26.4695 13.1583 28.4537 10.8675 28.5255 10.7648Z" fill="#FFD00A"/>
</g>
<defs>
<clipPath id="clip0_4702_10486">
<rect width="28.4653" height="13.7405" fill="white" transform="translate(0.767578 0.629883)"/>
</clipPath>
</defs>
</svg>
