<svg preserveAspectRatio="none" width="100%" height="100%" overflow="visible" style="display: block;" viewBox="0 0 18 18" fill="none" xmlns="http://www.w3.org/2000/svg">
<g id="calendar-2">
<g id="Vector" opacity="0">
</g>
<g id="Group">
<path id="Vector_2" d="M12.5625 2.67V1.5C12.5625 1.1925 12.3075 0.9375 12 0.9375C11.6925 0.9375 11.4375 1.1925 11.4375 1.5V2.625H6.56251V1.5C6.56251 1.1925 6.30751 0.9375 6.00001 0.9375C5.69251 0.9375 5.43751 1.1925 5.43751 1.5V2.67C3.41251 2.8575 2.43001 4.065 2.28001 5.8575C2.26501 6.075 2.44501 6.255 2.65501 6.255H15.345C15.5625 6.255 15.7425 6.0675 15.72 5.8575C15.57 4.065 14.5875 2.8575 12.5625 2.67Z" fill="var(--fill-0, #111110)"/>
<path id="Vector_3" opacity="0.4" d="M15 7.38C15.4125 7.38 15.75 7.7175 15.75 8.13V12.75C15.75 15 14.625 16.5 12 16.5H6C3.375 16.5 2.25 15 2.25 12.75V8.13C2.25 7.7175 2.5875 7.38 3 7.38H15Z" fill="var(--fill-0, #111110)"/>
</g>
<g id="Group_2">
<path id="Vector_4" d="M6.375 11.25C6.2775 11.25 6.18 11.2275 6.09 11.19C6 11.1525 5.91751 11.1 5.84251 11.0325C5.77501 10.9575 5.72249 10.875 5.68499 10.785C5.64749 10.695 5.625 10.5975 5.625 10.5C5.625 10.4025 5.64749 10.305 5.68499 10.215C5.72249 10.125 5.77501 10.0425 5.84251 9.9675C5.91751 9.9 6 9.84748 6.09 9.80998C6.27 9.73498 6.48 9.73498 6.66 9.80998C6.75 9.84748 6.83249 9.9 6.90749 9.9675C6.97499 10.0425 7.02751 10.125 7.06501 10.215C7.10251 10.305 7.125 10.4025 7.125 10.5C7.125 10.5975 7.10251 10.695 7.06501 10.785C7.02751 10.875 6.97499 10.9575 6.90749 11.0325C6.83249 11.1 6.75 11.1525 6.66 11.19C6.57 11.2275 6.4725 11.25 6.375 11.25Z" fill="var(--fill-0, #111110)"/>
</g>
<g id="Group_3">
<path id="Vector_5" d="M9 11.25C8.9025 11.25 8.805 11.2275 8.715 11.19C8.625 11.1525 8.54251 11.1 8.46751 11.0325C8.33251 10.89 8.25 10.695 8.25 10.5C8.25 10.305 8.33251 10.11 8.46751 9.96751C8.54251 9.90001 8.625 9.8475 8.715 9.81C8.895 9.7275 9.105 9.7275 9.285 9.81C9.375 9.8475 9.45749 9.90001 9.53249 9.96751C9.66749 10.11 9.75 10.305 9.75 10.5C9.75 10.695 9.66749 10.89 9.53249 11.0325C9.45749 11.1 9.375 11.1525 9.285 11.19C9.195 11.2275 9.0975 11.25 9 11.25Z" fill="var(--fill-0, #111110)"/>
</g>
<g id="Group_4">
<path id="Vector_6" d="M6.375 13.875C6.2775 13.875 6.18 13.8525 6.09 13.815C6 13.7775 5.91751 13.725 5.84251 13.6575C5.70751 13.515 5.625 13.32 5.625 13.125C5.625 12.93 5.70751 12.735 5.84251 12.5925C5.91751 12.525 6 12.4725 6.09 12.435C6.27 12.36 6.48 12.36 6.66 12.435C6.75 12.4725 6.83249 12.525 6.90749 12.5925C7.04249 12.735 7.125 12.93 7.125 13.125C7.125 13.32 7.04249 13.515 6.90749 13.6575C6.83249 13.725 6.75 13.7775 6.66 13.815C6.57 13.8525 6.4725 13.875 6.375 13.875Z" fill="var(--fill-0, #111110)"/>
</g>
</g>
</svg>
