<svg preserveAspectRatio="none" width="100%" height="100%" overflow="visible" style="display: block;" viewBox="0 0 14 14" fill="none" xmlns="http://www.w3.org/2000/svg">
<g id="copy">
<path id="Vector" d="M6.475 13.2708H4.025C1.74417 13.2708 0.729167 12.2558 0.729167 9.975V7.525C0.729167 5.24417 1.74417 4.22917 4.025 4.22917H6.475C8.75583 4.22917 9.77083 5.24417 9.77083 7.525V9.975C9.77083 12.2558 8.75583 13.2708 6.475 13.2708ZM4.025 5.10417C2.21667 5.10417 1.60417 5.71667 1.60417 7.525V9.975C1.60417 11.7833 2.21667 12.3958 4.025 12.3958H6.475C8.28333 12.3958 8.89583 11.7833 8.89583 9.975V7.525C8.89583 5.71667 8.28333 5.10417 6.475 5.10417H4.025V5.10417Z" fill="var(--fill-0, #0067F0)"/>
<path id="Vector_2" d="M9.975 9.77083H9.33333C9.09417 9.77083 8.89583 9.5725 8.89583 9.33333V7.525C8.89583 5.71667 8.28333 5.10417 6.475 5.10417H4.66667C4.4275 5.10417 4.22917 4.90583 4.22917 4.66667V4.025C4.22917 1.74417 5.24417 0.729167 7.525 0.729167H9.975C12.2558 0.729167 13.2708 1.74417 13.2708 4.025V6.475C13.2708 8.75583 12.2558 9.77083 9.975 9.77083ZM9.77083 8.89583H9.975C11.7833 8.89583 12.3958 8.28333 12.3958 6.475V4.025C12.3958 2.21667 11.7833 1.60417 9.975 1.60417H7.525C5.71667 1.60417 5.10417 2.21667 5.10417 4.025V4.22917H6.475C8.75583 4.22917 9.77083 5.24417 9.77083 7.525V8.89583Z" fill="var(--fill-0, #0067F0)"/>
<g id="Vector_3" opacity="0">
</g>
</g>
</svg>
