<svg preserveAspectRatio="none" width="100%" height="100%" overflow="visible" style="display: block;" viewBox="0 0 22 22" fill="none" xmlns="http://www.w3.org/2000/svg">
<g id="box-tick">
<g id="Vector" opacity="0">
</g>
<path id="Vector_2" opacity="0.4" d="M17.7375 5.18829L11.9717 2.08083C11.3667 1.75083 10.6333 1.75083 10.0192 2.08083L4.25335 5.18829C3.83168 5.41746 3.57499 5.86665 3.57499 6.36165C3.57499 6.85665 3.83168 7.30579 4.25335 7.53496L10.0192 10.6425C10.3217 10.8075 10.6608 10.89 10.9908 10.89C11.3208 10.89 11.66 10.8075 11.9625 10.6425L17.7283 7.53496C18.15 7.30579 18.4067 6.85665 18.4067 6.36165C18.425 5.86665 18.1592 5.41746 17.7375 5.18829Z" fill="var(--fill-0, #242423)"/>
<path id="Vector_3" opacity="0.4" d="M9.07499 11.7242L3.71249 9.03834C3.29999 8.82751 2.82333 8.85501 2.42916 9.09334C2.03499 9.33167 1.80583 9.75337 1.80583 10.2117V15.2808C1.80583 16.1608 2.29165 16.9492 3.07999 17.3433L8.44249 20.02C8.62583 20.1117 8.82751 20.1575 9.02917 20.1575C9.26751 20.1575 9.50584 20.0934 9.71667 19.9559C10.1108 19.7175 10.34 19.2958 10.34 18.8375V13.7684C10.3492 12.9067 9.86333 12.1183 9.07499 11.7242Z" fill="var(--fill-0, #242423)"/>
<path id="Vector_4" opacity="0.4" d="M20.1942 10.2209V14.4283C20.185 14.4192 20.1758 14.4009 20.1667 14.3917C20.1667 14.3825 20.1575 14.3733 20.1483 14.3642C20.1117 14.3092 20.0658 14.2542 20.02 14.2083C20.0108 14.1992 20.0017 14.1809 19.9925 14.1717C19.25 13.3467 18.1592 12.8333 16.9583 12.8333C15.8033 12.8333 14.7492 13.31 13.9975 14.08C13.2733 14.8225 12.8333 15.84 12.8333 16.9583C12.8333 17.7283 13.0533 18.4617 13.4292 19.085C13.585 19.3508 13.7775 19.5892 13.9883 19.8092L13.5575 20.0292C13.3742 20.1208 13.1725 20.1667 12.9708 20.1667C12.7325 20.1667 12.4942 20.1025 12.2742 19.965C11.8892 19.7267 11.6508 19.305 11.6508 18.8467V13.7867C11.6508 12.9067 12.1367 12.1183 12.925 11.7242L18.2875 9.0475C18.7 8.83667 19.1767 8.855 19.5708 9.1025C19.9558 9.34084 20.1942 9.76253 20.1942 10.2209Z" fill="var(--fill-0, #242423)"/>
<path id="Vector_5" d="M20.1483 14.3642C19.3967 13.4383 18.2508 12.8517 16.9583 12.8517C15.9867 12.8517 15.0883 13.1908 14.3825 13.7592C13.4292 14.5108 12.8333 15.675 12.8333 16.9767C12.8333 17.7467 13.0533 18.48 13.4292 19.1034C13.6767 19.5159 13.9883 19.8733 14.355 20.1667H14.3642C15.07 20.7533 15.9775 21.1017 16.9583 21.1017C18.0033 21.1017 18.9475 20.7167 19.6717 20.075C19.9925 19.8 20.2675 19.47 20.4875 19.1034C20.8633 18.48 21.0833 17.7467 21.0833 16.9767C21.0833 15.9867 20.735 15.07 20.1483 14.3642ZM19.03 16.4634L16.83 18.4983C16.7017 18.6175 16.5275 18.6817 16.3625 18.6817C16.1883 18.6817 16.0142 18.6175 15.8767 18.48L14.8592 17.4625C14.5933 17.1967 14.5933 16.7567 14.8592 16.4908C15.125 16.225 15.565 16.225 15.8308 16.4908L16.3808 17.0409L18.095 15.455C18.37 15.1983 18.81 15.2167 19.0667 15.4917C19.3325 15.7759 19.3142 16.2067 19.03 16.4634Z" fill="var(--fill-0, #242423)"/>
</g>
</svg>
