<svg preserveAspectRatio="none" width="100%" height="100%" overflow="visible" style="display: block;" viewBox="0 0 22 22" fill="none" xmlns="http://www.w3.org/2000/svg">
<g id="ship">
<g id="Vector" opacity="0">
</g>
<path id="Vector_2" d="M19.8275 13.4383L19.4517 15.1433C18.8008 18.0767 16.5 20.1667 13.1817 20.1667H8.81832C5.49998 20.1667 3.19915 18.0767 2.54832 15.1433L2.17248 13.4383C1.98915 12.6042 2.48414 11.66 3.28164 11.3392L4.58332 10.8167L9.63417 8.79083C10.0742 8.61666 10.5417 8.52499 11 8.52499C11.4583 8.52499 11.9258 8.61666 12.3658 8.79083L17.4167 10.8167L18.7183 11.3392C19.5158 11.66 20.0108 12.6042 19.8275 13.4383Z" fill="var(--fill-0, #242423)"/>
<path id="Vector_3" opacity="0.4" d="M17.4167 7.33333V10.8167L12.3658 8.79083C11.4858 8.4425 10.5142 8.4425 9.63418 8.79083L4.58333 10.8167V7.33333C4.58333 5.82083 5.82083 4.58333 7.33333 4.58333H14.6667C16.1792 4.58333 17.4167 5.82083 17.4167 7.33333Z" fill="var(--fill-0, #242423)"/>
<path id="Vector_4" d="M13.2917 4.58333H8.70833V2.75C8.70833 2.24583 9.12083 1.83333 9.625 1.83333H12.375C12.8792 1.83333 13.2917 2.24583 13.2917 2.75V4.58333Z" fill="var(--fill-0, #242423)"/>
</g>
</svg>
