<svg preserveAspectRatio="none" width="100%" height="100%" overflow="visible" style="display: block;" viewBox="0 0 22 22" fill="none" xmlns="http://www.w3.org/2000/svg">
<g id="box">
<g id="Vector" opacity="0">
</g>
<path id="Vector_2" opacity="0.4" d="M18.425 6.36165C18.425 6.85665 18.1592 7.30579 17.7375 7.53496L16.1425 8.39662L14.7858 9.12083L11.9717 10.6425C11.6692 10.8075 11.3392 10.89 11 10.89C10.6608 10.89 10.3308 10.8075 10.0283 10.6425L4.26249 7.53496C3.84083 7.30579 3.57499 6.85665 3.57499 6.36165C3.57499 5.86665 3.84083 5.41746 4.26249 5.18829L6.06833 4.21663L7.5075 3.43748L10.0283 2.08083C10.6333 1.75083 11.3667 1.75083 11.9717 2.08083L17.7375 5.18829C18.1592 5.41746 18.425 5.86665 18.425 6.36165Z" fill="var(--fill-0, #242423)"/>
<path id="Vector_3" opacity="0.4" d="M9.07499 11.7242L3.71249 9.03834C3.29999 8.82751 2.82333 8.85501 2.42916 9.09334C2.03499 9.33167 1.80583 9.75337 1.80583 10.2117V15.2808C1.80583 16.1608 2.29165 16.9492 3.07999 17.3433L8.44249 20.02C8.62583 20.1117 8.82751 20.1575 9.02917 20.1575C9.26751 20.1575 9.50584 20.0934 9.71667 19.9559C10.1108 19.7175 10.34 19.2958 10.34 18.8375V13.7684C10.3492 12.9067 9.86333 12.1183 9.07499 11.7242Z" fill="var(--fill-0, #242423)"/>
<path id="Vector_4" opacity="0.4" d="M20.1942 10.2209V15.29C20.1942 16.1608 19.7083 16.9492 18.92 17.3433L13.5575 20.0292C13.3742 20.1208 13.1725 20.1667 12.9708 20.1667C12.7325 20.1667 12.4942 20.1025 12.2742 19.965C11.8892 19.7267 11.6508 19.305 11.6508 18.8467V13.7867C11.6508 12.9067 12.1367 12.1183 12.925 11.7242L14.8958 10.7433L16.2708 10.0558L18.2875 9.0475C18.7 8.83667 19.1767 8.855 19.5708 9.1025C19.9558 9.34084 20.1942 9.76253 20.1942 10.2209Z" fill="var(--fill-0, #242423)"/>
<path id="Vector_5" d="M16.1425 8.39664L14.7858 9.12084L6.06833 4.21664L7.5075 3.4375L15.9225 8.18583C16.0142 8.24083 16.0875 8.31414 16.1425 8.39664Z" fill="var(--fill-0, #242423)"/>
<path id="Vector_6" d="M16.2708 10.0558V12.1367C16.2708 12.5125 15.9592 12.8242 15.5833 12.8242C15.2075 12.8242 14.8958 12.5125 14.8958 12.1367V10.7433L16.2708 10.0558Z" fill="var(--fill-0, #242423)"/>
</g>
</svg>
