<svg preserveAspectRatio="none" width="100%" height="100%" overflow="visible" style="display: block;" viewBox="0 0 22 22" fill="none" xmlns="http://www.w3.org/2000/svg">
<g id="judge">
<g id="Vector" opacity="0">
</g>
<g id="Group">
<path id="Vector_2" d="M18.8283 17.4533C18.6908 17.5908 18.5167 17.655 18.3425 17.655C18.1683 17.655 17.9942 17.5908 17.8567 17.4533L13.3192 12.9158L13.805 12.43L14.2908 11.9442L18.8283 16.4817C19.0942 16.7475 19.0942 17.1875 18.8283 17.4533Z" fill="var(--fill-0, #242423)"/>
</g>
<path id="Vector_3" opacity="0.4" d="M5.93084 8.50666L11.2475 13.8233C11.605 14.1808 11.605 14.7583 11.2475 15.1158L10.4225 15.95C9.68 16.6833 8.50666 16.6833 7.77333 15.95L3.795 11.9717C3.07083 11.2475 3.07083 10.065 3.795 9.33166L4.62917 8.4975C4.98667 8.14917 5.57334 8.14916 5.93084 8.50666Z" fill="var(--fill-0, #242423)"/>
<path id="Vector_4" d="M17.0408 9.34084L13.5483 12.8242C13.1817 13.1908 12.595 13.1908 12.2283 12.8242L6.93917 7.535C6.5725 7.16834 6.5725 6.58167 6.93917 6.215L10.4317 2.7225C11.1558 1.99834 12.3383 1.99834 13.0717 2.7225L17.05 6.70083C17.765 7.425 17.765 8.59834 17.0408 9.34084Z" fill="var(--fill-0, #242423)"/>
<g id="Group_2">
<path id="Vector_5" d="M7.33333 19.9375H1.83333C1.4575 19.9375 1.14583 19.6258 1.14583 19.25C1.14583 18.8742 1.4575 18.5625 1.83333 18.5625H7.33333C7.70917 18.5625 8.02083 18.8742 8.02083 19.25C8.02083 19.6258 7.70917 19.9375 7.33333 19.9375Z" fill="var(--fill-0, #242423)"/>
</g>
</g>
</svg>
