<svg preserveAspectRatio="none" width="100%" height="100%" overflow="visible" style="display: block;" viewBox="0 0 18 18" fill="none" xmlns="http://www.w3.org/2000/svg">
<g id="profile-2user">
<path id="Vector" opacity="0.4" d="M6.75 1.5C4.785 1.5 3.1875 3.0975 3.1875 5.0625C3.1875 6.99 4.695 8.55 6.66 8.6175C6.72 8.61 6.78 8.61 6.825 8.6175C6.84 8.6175 6.8475 8.6175 6.8625 8.6175C6.87 8.6175 6.87 8.6175 6.8775 8.6175C8.7975 8.55 10.305 6.99 10.3125 5.0625C10.3125 3.0975 8.715 1.5 6.75 1.5Z" fill="var(--fill-0, #AFAFAE)"/>
<path id="Vector_2" d="M10.56 10.6125C8.4675 9.2175 5.055 9.2175 2.9475 10.6125C1.995 11.25 1.47 12.1125 1.47 13.035C1.47 13.9575 1.995 14.8125 2.94 15.4425C3.99 16.1475 5.37 16.5 6.75 16.5C8.13 16.5 9.51 16.1475 10.56 15.4425C11.505 14.805 12.03 13.95 12.03 13.02C12.0225 12.0975 11.505 11.2425 10.56 10.6125Z" fill="var(--fill-0, #AFAFAE)"/>
<path id="Vector_3" opacity="0.4" d="M14.9925 5.505C15.1125 6.96 14.0775 8.235 12.645 8.4075C12.6375 8.4075 12.6375 8.4075 12.63 8.4075H12.6075C12.5625 8.4075 12.5175 8.4075 12.48 8.4225C11.7525 8.46 11.085 8.2275 10.5825 7.8C11.355 7.11 11.7975 6.075 11.7075 4.95C11.655 4.3425 11.445 3.7875 11.13 3.315C11.415 3.1725 11.745 3.0825 12.0825 3.0525C13.5525 2.925 14.865 4.02 14.9925 5.505Z" fill="var(--fill-0, #AFAFAE)"/>
<path id="Vector_4" d="M16.4925 12.4425C16.4325 13.17 15.9675 13.8 15.1875 14.2275C14.4375 14.64 13.4925 14.835 12.555 14.8125C13.095 14.325 13.41 13.7175 13.47 13.0725C13.545 12.1425 13.1025 11.25 12.2175 10.5375C11.715 10.14 11.13 9.825 10.4925 9.5925C12.15 9.1125 14.235 9.435 15.5175 10.47C16.2075 11.025 16.56 11.7225 16.4925 12.4425Z" fill="var(--fill-0, #AFAFAE)"/>
<g id="Vector_5" opacity="0">
</g>
</g>
</svg>
