<svg preserveAspectRatio="none" width="100%" height="100%" overflow="visible" style="display: block;" viewBox="0 0 18 18" fill="none" xmlns="http://www.w3.org/2000/svg">
<g id="document-text">
<g id="Vector" opacity="0">
</g>
<path id="Vector_2" opacity="0.4" d="M15.75 5.25V12.75C15.75 15 14.625 16.5 12 16.5H6C3.375 16.5 2.25 15 2.25 12.75V5.25C2.25 3 3.375 1.5 6 1.5H12C14.625 1.5 15.75 3 15.75 5.25Z" fill="var(--fill-0, #0067F0)"/>
<g id="Group">
<path id="Vector_3" d="M13.875 6.9375H12.375C11.235 6.9375 10.3125 6.015 10.3125 4.875V3.375C10.3125 3.0675 10.5675 2.8125 10.875 2.8125C11.1825 2.8125 11.4375 3.0675 11.4375 3.375V4.875C11.4375 5.3925 11.8575 5.8125 12.375 5.8125H13.875C14.1825 5.8125 14.4375 6.0675 14.4375 6.375C14.4375 6.6825 14.1825 6.9375 13.875 6.9375Z" fill="var(--fill-0, #0067F0)"/>
</g>
<g id="Group_2">
<path id="Vector_4" d="M9 10.3125H6C5.6925 10.3125 5.4375 10.0575 5.4375 9.75C5.4375 9.4425 5.6925 9.1875 6 9.1875H9C9.3075 9.1875 9.5625 9.4425 9.5625 9.75C9.5625 10.0575 9.3075 10.3125 9 10.3125Z" fill="var(--fill-0, #0067F0)"/>
</g>
<g id="Group_3">
<path id="Vector_5" d="M12 13.3125H6C5.6925 13.3125 5.4375 13.0575 5.4375 12.75C5.4375 12.4425 5.6925 12.1875 6 12.1875H12C12.3075 12.1875 12.5625 12.4425 12.5625 12.75C12.5625 13.0575 12.3075 13.3125 12 13.3125Z" fill="var(--fill-0, #0067F0)"/>
</g>
<g id="Vector_6" opacity="0">
</g>
</g>
</svg>
