<svg preserveAspectRatio="none" width="100%" height="100%" overflow="visible" style="display: block;" viewBox="0 0 18 18" fill="none" xmlns="http://www.w3.org/2000/svg">
<g id="message-text">
<path id="Vector" opacity="0.4" d="M1.5 9.7275V5.2425C1.5 3.1725 3.18 1.5 5.25 1.5H12.75C14.82 1.5 16.5 3.1725 16.5 5.2425V10.4775C16.5 12.54 14.82 14.2125 12.75 14.2125H11.625C11.3925 14.2125 11.1675 14.325 11.025 14.5125L9.9 16.005C9.405 16.665 8.595 16.665 8.1 16.005L6.975 14.5125C6.855 14.3475 6.585 14.2125 6.375 14.2125H5.25C3.18 14.2125 1.5 12.54 1.5 10.4775V9.7275Z" fill="var(--fill-0, #AFAFAE)"/>
<path id="Vector_2" d="M12.75 6.5625H5.25C4.9425 6.5625 4.6875 6.3075 4.6875 6C4.6875 5.6925 4.9425 5.4375 5.25 5.4375H12.75C13.0575 5.4375 13.3125 5.6925 13.3125 6C13.3125 6.3075 13.0575 6.5625 12.75 6.5625Z" fill="var(--fill-0, #AFAFAE)"/>
<path id="Vector_3" d="M9.75 10.3125H5.25C4.9425 10.3125 4.6875 10.0575 4.6875 9.75C4.6875 9.4425 4.9425 9.1875 5.25 9.1875H9.75C10.0575 9.1875 10.3125 9.4425 10.3125 9.75C10.3125 10.0575 10.0575 10.3125 9.75 10.3125Z" fill="var(--fill-0, #AFAFAE)"/>
<g id="Vector_4" opacity="0">
</g>
</g>
</svg>
