<svg preserveAspectRatio="none" width="100%" height="100%" overflow="visible" style="display: block;" viewBox="0 0 18 18" fill="none" xmlns="http://www.w3.org/2000/svg">
<g id="setting-2">
<path id="Vector" opacity="0.4" d="M1.5 9.66V8.34C1.5 7.56 2.1375 6.915 2.925 6.915C4.2825 6.915 4.8375 5.955 4.155 4.7775C3.765 4.1025 3.9975 3.225 4.68 2.835L5.9775 2.0925C6.57 1.74 7.335 1.95 7.6875 2.5425L7.77 2.685C8.445 3.8625 9.555 3.8625 10.2375 2.685L10.32 2.5425C10.6725 1.95 11.4375 1.74 12.03 2.0925L13.3275 2.835C14.01 3.225 14.2425 4.1025 13.8525 4.7775C13.17 5.955 13.725 6.915 15.0825 6.915C15.8625 6.915 16.5075 7.5525 16.5075 8.34V9.66C16.5075 10.44 15.87 11.085 15.0825 11.085C13.725 11.085 13.17 12.045 13.8525 13.2225C14.2425 13.905 14.01 14.775 13.3275 15.165L12.03 15.9075C11.4375 16.26 10.6725 16.05 10.32 15.4575L10.2375 15.315C9.5625 14.1375 8.4525 14.1375 7.77 15.315L7.6875 15.4575C7.335 16.05 6.57 16.26 5.9775 15.9075L4.68 15.165C3.9975 14.775 3.765 13.8975 4.155 13.2225C4.8375 12.045 4.2825 11.085 2.925 11.085C2.1375 11.085 1.5 10.44 1.5 9.66Z" fill="var(--fill-0, #AFAFAE)"/>
<path id="Vector_2" d="M9 11.4375C10.3462 11.4375 11.4375 10.3462 11.4375 9C11.4375 7.65381 10.3462 6.5625 9 6.5625C7.65381 6.5625 6.5625 7.65381 6.5625 9C6.5625 10.3462 7.65381 11.4375 9 11.4375Z" fill="var(--fill-0, #AFAFAE)"/>
<g id="Vector_3" opacity="0">
</g>
</g>
</svg>
