<svg preserveAspectRatio="none" width="100%" height="100%" overflow="visible" style="display: block;" viewBox="0 0 18 18" fill="none" xmlns="http://www.w3.org/2000/svg">
<g id="truck-time">
<g id="Vector" opacity="0">
</g>
<path id="Vector_2" d="M3.75 0.75C3.045 0.75 2.3925 0.997504 1.875 1.41C1.185 1.9575 0.75 2.805 0.75 3.75C0.75 5.4075 2.0925 6.75 3.75 6.75C4.5075 6.75 5.19751 6.465 5.73001 6C6.35251 5.4525 6.75 4.65 6.75 3.75C6.75 2.0925 5.4075 0.75 3.75 0.75ZM4.5 3.9375C4.5 4.1325 4.39501 4.32001 4.23001 4.41751L3.29251 4.98001C3.20251 5.03251 3.10501 5.0625 3.00751 5.0625C2.82001 5.0625 2.6325 4.96501 2.5275 4.79251C2.37 4.52251 2.4525 4.17749 2.7225 4.01999L3.39001 3.62251V2.8125C3.39001 2.505 3.64501 2.25 3.95251 2.25C4.26001 2.25 4.51501 2.505 4.51501 2.8125V3.9375H4.5Z" fill="var(--fill-0, #AFAFAE)"/>
<path id="Vector_3" opacity="0.4" d="M11.25 2.25V9C11.25 9.825 10.575 10.5 9.75 10.5H1.5V5.715C2.0475 6.3675 2.88752 6.7725 3.81752 6.75C4.57502 6.735 5.2575 6.4425 5.7675 5.955C6 5.76 6.19502 5.51249 6.34502 5.24249C6.61502 4.78499 6.765 4.24498 6.75 3.68248C6.7275 2.80498 6.33751 2.0325 5.73001 1.5H10.5C10.9125 1.5 11.25 1.8375 11.25 2.25Z" fill="var(--fill-0, #AFAFAE)"/>
<path id="Vector_4" d="M16.5 10.5V12.75C16.5 13.995 15.495 15 14.25 15H13.5C13.5 14.175 12.825 13.5 12 13.5C11.175 13.5 10.5 14.175 10.5 15H7.5C7.5 14.175 6.825 13.5 6 13.5C5.175 13.5 4.5 14.175 4.5 15H3.75C2.505 15 1.5 13.995 1.5 12.75V10.5H9.75C10.575 10.5 11.25 9.825 11.25 9V3.75H12.63C13.17 3.75 13.665 4.04251 13.935 4.50751L15.2175 6.75H14.25C13.8375 6.75 13.5 7.0875 13.5 7.5V9.75C13.5 10.1625 13.8375 10.5 14.25 10.5H16.5Z" fill="var(--fill-0, #AFAFAE)"/>
<path id="Vector_5" opacity="0.4" d="M6 16.5C6.82843 16.5 7.5 15.8284 7.5 15C7.5 14.1716 6.82843 13.5 6 13.5C5.17157 13.5 4.5 14.1716 4.5 15C4.5 15.8284 5.17157 16.5 6 16.5Z" fill="var(--fill-0, #AFAFAE)"/>
<path id="Vector_6" opacity="0.4" d="M12 16.5C12.8284 16.5 13.5 15.8284 13.5 15C13.5 14.1716 12.8284 13.5 12 13.5C11.1716 13.5 10.5 14.1716 10.5 15C10.5 15.8284 11.1716 16.5 12 16.5Z" fill="var(--fill-0, #AFAFAE)"/>
<path id="Vector_7" opacity="0.4" d="M16.5 9.39752V10.5H14.25C13.8375 10.5 13.5 10.1625 13.5 9.75V7.5C13.5 7.0875 13.8375 6.75 14.25 6.75H15.2175L16.305 8.65498C16.4325 8.87998 16.5 9.13502 16.5 9.39752Z" fill="var(--fill-0, #AFAFAE)"/>
</g>
</svg>
