<svg preserveAspectRatio="none" width="100%" height="100%" overflow="visible" style="display: block;" viewBox="0 0 18 18" fill="none" xmlns="http://www.w3.org/2000/svg">
<g id="home-trend-up">
<g id="home-trend-up_2">
<path id="Vector" opacity="0.4" d="M15.03 5.115L10.71 2.0925C9.5325 1.2675 7.725 1.3125 6.5925 2.19L2.835 5.1225C2.085 5.7075 1.4925 6.9075 1.4925 7.8525V13.0275C1.4925 14.94 3.045 16.5 4.9575 16.5H13.0425C14.955 16.5 16.5075 14.9475 16.5075 13.035V7.95C16.5075 6.9375 15.855 5.6925 15.03 5.115Z" fill="var(--fill-0, #AFAFAE)"/>
<path id="Vector_2" d="M12.6225 8.4525C12.57 8.325 12.465 8.22 12.3375 8.1675C12.27 8.1375 12.2025 8.13 12.135 8.13H10.74C10.4475 8.13 10.215 8.3625 10.215 8.655C10.215 8.9475 10.4475 9.18 10.74 9.18H10.875L9.2925 10.7625L8.5275 9.6225C8.4375 9.495 8.3025 9.405 8.145 9.39C7.98 9.375 7.8375 9.4275 7.725 9.54L5.49 11.775C5.2875 11.9775 5.2875 12.3075 5.49 12.5175C5.595 12.6225 5.7225 12.6675 5.8575 12.6675C5.9925 12.6675 6.1275 12.615 6.225 12.5175L8.01 10.7325L8.775 11.8725C8.865 12 9 12.09 9.1575 12.105C9.3225 12.12 9.465 12.0675 9.5775 11.955L11.6175 9.915V10.05C11.6175 10.3425 11.85 10.575 12.1425 10.575C12.435 10.575 12.6675 10.3425 12.6675 10.05V8.655C12.66 8.58 12.6525 8.5125 12.6225 8.4525Z" fill="var(--fill-0, #AFAFAE)"/>
</g>
<path id="Vector_3" opacity="0" d="M18 0H0V18H18V0Z" fill="var(--fill-0, #AFAFAE)"/>
</g>
</svg>
