<svg preserveAspectRatio="none" width="100%" height="100%" overflow="visible" style="display: block;" viewBox="0 0 18 18" fill="none" xmlns="http://www.w3.org/2000/svg">
<g id="notification-bing">
<path id="Vector" opacity="0.4" d="M15.3 12.2475C15.09 12.81 14.6475 13.2375 14.07 13.4325C13.26 13.7025 12.4275 13.905 11.5875 14.0475C11.505 14.0625 11.4225 14.0775 11.34 14.085C11.205 14.1075 11.07 14.1225 10.935 14.1375C10.77 14.16 10.5975 14.175 10.425 14.19C9.9525 14.2275 9.4875 14.25 9.015 14.25C8.535 14.25 8.055 14.2275 7.5825 14.1825C7.38 14.1675 7.185 14.145 6.99 14.115C6.8775 14.1 6.765 14.085 6.66 14.07C6.5775 14.055 6.495 14.0475 6.4125 14.0325C5.58 13.8975 4.755 13.695 3.9525 13.425C3.3525 13.2225 2.895 12.795 2.6925 12.2475C2.49 11.7075 2.565 11.0775 2.8875 10.5375L3.735 9.1275C3.915 8.82 4.08 8.2275 4.08 7.8675V6.4725C4.08 3.75 6.2925 1.5375 9.015 1.5375C11.73 1.5375 13.9425 3.75 13.9425 6.4725V7.8675C13.9425 8.2275 14.1075 8.82 14.295 9.1275L15.1425 10.5375C15.45 11.0625 15.51 11.6775 15.3 12.2475Z" fill="var(--fill-0, #242423)"/>
<path id="Vector_2" d="M9 8.07C8.685 8.07 8.43 7.815 8.43 7.5V5.175C8.43 4.86 8.685 4.605 9 4.605C9.315 4.605 9.57 4.86 9.57 5.175V7.5C9.5625 7.815 9.3075 8.07 9 8.07Z" fill="var(--fill-0, #242423)"/>
<path id="Vector_3" d="M11.1225 15.0075C10.8075 15.8775 9.975 16.5 9 16.5C8.4075 16.5 7.8225 16.26 7.41 15.8325C7.17 15.6075 6.99 15.3075 6.885 15C6.9825 15.015 7.08 15.0225 7.185 15.0375C7.3575 15.06 7.5375 15.0825 7.7175 15.0975C8.145 15.135 8.58 15.1575 9.015 15.1575C9.4425 15.1575 9.87 15.135 10.29 15.0975C10.4475 15.0825 10.605 15.075 10.755 15.0525C10.875 15.0375 10.995 15.0225 11.1225 15.0075Z" fill="var(--fill-0, #242423)"/>
<g id="Vector_4" opacity="0">
</g>
</g>
</svg>
