<svg preserveAspectRatio="none" width="100%" height="100%" overflow="visible" style="display: block;" viewBox="0 0 18 18" fill="none" xmlns="http://www.w3.org/2000/svg">
<g id="search-normal">
<path id="Vector" opacity="0.4" d="M8.625 15.75C12.56 15.75 15.75 12.56 15.75 8.625C15.75 4.68997 12.56 1.5 8.625 1.5C4.68997 1.5 1.5 4.68997 1.5 8.625C1.5 12.56 4.68997 15.75 8.625 15.75Z" fill="var(--fill-0, #242423)"/>
<path id="Vector_2" d="M15.975 16.5C15.84 16.5 15.705 16.4475 15.6075 16.35L14.2125 14.955C14.01 14.7525 14.01 14.4225 14.2125 14.2125C14.415 14.01 14.745 14.01 14.955 14.2125L16.35 15.6075C16.5525 15.81 16.5525 16.14 16.35 16.35C16.245 16.4475 16.11 16.5 15.975 16.5Z" fill="var(--fill-0, #242423)"/>
<g id="Vector_3" opacity="0">
</g>
</g>
</svg>
