<svg preserveAspectRatio="none" width="100%" height="100%" overflow="visible" style="display: block;" viewBox="0 0 16 16" fill="none" xmlns="http://www.w3.org/2000/svg">
<g id="timer">
<path id="Vector" opacity="0.4" d="M8 14.6667C11.1922 14.6667 13.78 12.0789 13.78 8.88667C13.78 5.69446 11.1922 3.10667 8 3.10667C4.80779 3.10667 2.22 5.69446 2.22 8.88667C2.22 12.0789 4.80779 14.6667 8 14.6667Z" fill="var(--fill-0, #5FDCB3)"/>
<path id="Vector_2" d="M8 9.16667C7.72667 9.16667 7.5 8.94 7.5 8.66667V5.33333C7.5 5.06 7.72667 4.83333 8 4.83333C8.27333 4.83333 8.5 5.06 8.5 5.33333V8.66667C8.5 8.94 8.27333 9.16667 8 9.16667Z" fill="var(--fill-0, #5FDCB3)"/>
<path id="Vector_3" d="M9.92667 2.3H6.07333C5.80667 2.3 5.59333 2.08667 5.59333 1.82C5.59333 1.55333 5.80667 1.33333 6.07333 1.33333H9.92667C10.1933 1.33333 10.4067 1.54667 10.4067 1.81333C10.4067 2.08 10.1933 2.3 9.92667 2.3Z" fill="var(--fill-0, #5FDCB3)"/>
<g id="Vector_4" opacity="0">
</g>
</g>
</svg>
