<svg preserveAspectRatio="none" width="100%" height="100%" overflow="visible" style="display: block;" viewBox="0 0 22 22" fill="none" xmlns="http://www.w3.org/2000/svg">
<g id="location">
<path id="Vector" opacity="0.4" d="M18.9017 7.74583C17.9392 3.51083 14.245 1.60417 11 1.60417C11 1.60417 11 1.60417 10.9908 1.60417C7.755 1.60417 4.05167 3.50167 3.08917 7.73667C2.01667 12.4667 4.91333 16.4725 7.535 18.9933C8.50667 19.9283 9.75333 20.3958 11 20.3958C12.2467 20.3958 13.4933 19.9283 14.4558 18.9933C17.0775 16.4725 19.9742 12.4758 18.9017 7.74583Z" fill="var(--fill-0, #0067F0)"/>
<path id="Vector_2" d="M11 12.3383C12.5947 12.3383 13.8875 11.0456 13.8875 9.45083C13.8875 7.85611 12.5947 6.56333 11 6.56333C9.40528 6.56333 8.1125 7.85611 8.1125 9.45083C8.1125 11.0456 9.40528 12.3383 11 12.3383Z" fill="var(--fill-0, #0067F0)"/>
<path id="Vector_3" opacity="0" d="M22 0H0V22H22V0Z" fill="var(--fill-0, #0067F0)"/>
</g>
</svg>
